<svg xmlns="http://www.w3.org/2000/svg" viewBox="4666 4431.218 15.445 10.063">
  <defs>
    <style>
      .cls-1 {
        fill: #ffea8a;
      }

      .cls-2 {
        fill: #ffdb2d;
      }
    </style>
  </defs>
  <g id="crown" transform="translate(4666 4342.006)">
    <path id="Path_24" data-name="Path 24" class="cls-1" d="M15.445,90.148a.936.936,0,1,0-1.6.662L11,93.658,8.256,90.916a.936.936,0,1,0-1.068,0L4.446,93.658,1.6,90.81a.936.936,0,1,0-.9.244v8.221H14.743V91.053A.937.937,0,0,0,15.445,90.148Z"/>
    <path id="Path_25" data-name="Path 25" class="cls-2" d="M262.788,89.212a.936.936,0,0,0-.662,1.6l-2.849,2.849-2.742-2.742a.935.935,0,0,0-.534-1.7V99.275h7.021V91.053a.935.935,0,0,0-.234-1.841Z" transform="translate(-248.279)"/>
  </g>
</svg>
