<svg xmlns="http://www.w3.org/2000/svg" viewBox="6305 1901 20 20"><defs><style>.a{fill:#47b0d3;}.b{fill:#3298ba;}.c{fill:#e5e5e5;}.d{fill:#ccc;}.e{fill:#fff;}</style></defs><g transform="translate(6305 1901)"><circle class="a" cx="10" cy="10" r="10" transform="translate(0)"/><path class="b" d="M1.333,10A10,10,0,0,1,10.667.023C10.446.008,10.224,0,10,0a10,10,0,0,0,0,20c.224,0,.446-.008.667-.023A10,10,0,0,1,1.333,10Z" transform="translate(0)"/><path class="c" d="M100.385,107.636a.333.333,0,0,0-.328-.027l-10.746,5a.525.525,0,0,0,.012.958l9.907,4.315a.53.53,0,0,0,.742-.447l.559-9.506A.333.333,0,0,0,100.385,107.636Z" transform="translate(-85.531 -103.376)"/><path class="d" d="M171.631,115.658l.67,4.476,7.437-11.7Z" transform="translate(-164.927 -104.196)"/><path class="e" d="M100.056,107.613l-10.746,5a.525.525,0,0,0,.012.958l2.912,1.268,8.107-7.226A.333.333,0,0,0,100.056,107.613Z" transform="translate(-85.53 -103.379)"/><path class="c" d="M189.657,116.335l-.885,3.8,7.437-11.7Z" transform="translate(-181.398 -104.196)"/><path class="e" d="M218.014,108.456a.326.326,0,0,0-.043-.024l-6.553,7.9,5.44,2.369a.53.53,0,0,0,.742-.447l.559-9.506A.333.333,0,0,0,218.014,108.456Z" transform="translate(-203.16 -104.196)"/></g></svg>