<svg xmlns="http://www.w3.org/2000/svg" viewBox="6340 1901 18.002 20"><defs><style>.a{fill:#665cac;}.b{fill:#523494;}.c{fill:#fff;}.d{fill:#e5e5e5;}</style></defs><g transform="translate(6314.429 1901)"><path class="a" d="M36.572,0h-4a7.009,7.009,0,0,0-7,7v3a7,7,0,0,0,4,6.327v3.341a.336.336,0,0,0,.569.236l2.9-2.9h3.529a7.009,7.009,0,0,0,7-7V7A7.009,7.009,0,0,0,36.572,0Z"/><path class="b" d="M30.572,16.328a7,7,0,0,1-4-6.327V7a7.009,7.009,0,0,1,7-7h-1a7.009,7.009,0,0,0-7,7v3a7,7,0,0,0,4,6.327v3.341a.336.336,0,0,0,.569.236l.431-.431Z"/><path class="c" d="M121.631,101.7l-.3-1.624a.333.333,0,0,0-.262-.266l-2.357-.471a.334.334,0,0,0-.3.091l-.958.958a5.987,5.987,0,0,1-3.3-3.3l.955-.955a.334.334,0,0,0,.091-.3l-.471-2.357a.333.333,0,0,0-.266-.262l-1.624-.3a.334.334,0,0,0-.134,0,2.326,2.326,0,0,0-1.131.625,2.528,2.528,0,0,0-.6,2.275,10.068,10.068,0,0,0,2.473,5.259l.02.02a10.068,10.068,0,0,0,5.258,2.472,3.726,3.726,0,0,0,.58.047,2.257,2.257,0,0,0,2.32-1.774A.337.337,0,0,0,121.631,101.7Z" transform="translate(-82.026 -89.275)"/><g transform="translate(28.905 3.971)"><path class="d" d="M209.57,175.811l.326-.326h0l-.326.326Z" transform="translate(-205.717 -172.601)"/><rect class="d" width="0.465" transform="translate(7.15 6.513) rotate(-45)"/><path class="d" d="M119.933,111.394a3.727,3.727,0,0,1-.58-.047,10.068,10.068,0,0,1-5.258-2.472l-.02-.02A10.068,10.068,0,0,1,111.6,103.6a2.714,2.714,0,0,1,.323-1.938,2.334,2.334,0,0,0-.355.291,2.528,2.528,0,0,0-.6,2.275,10.068,10.068,0,0,0,2.472,5.259l.02.02a10.068,10.068,0,0,0,5.258,2.472,3.727,3.727,0,0,0,.58.047,2.23,2.23,0,0,0,1.987-1A2.451,2.451,0,0,1,119.933,111.394Z" transform="translate(-110.927 -101.659)"/></g><g transform="translate(34.572 3)"><path class="c" d="M264.868,145.085a.333.333,0,0,0,0,.667,1.335,1.335,0,0,1,1.334,1.334.333.333,0,1,0,.667,0A2,2,0,0,0,264.868,145.085Z" transform="translate(-264.202 -142.418)"/><path class="c" d="M256.666,110.947a3.388,3.388,0,0,0-.37.02.333.333,0,1,0,.073.663,2.714,2.714,0,0,1,.3-.016,2.67,2.67,0,0,1,2.667,2.667,2.711,2.711,0,0,1-.016.3.333.333,0,1,0,.663.073,3.385,3.385,0,0,0,.02-.37A3.338,3.338,0,0,0,256.666,110.947Z" transform="translate(-255.999 -109.614)"/><path class="c" d="M256.666,76.81c-.119,0-.24,0-.359.014a.333.333,0,0,0,.05.665c.1-.008.206-.012.308-.012A4,4,0,0,1,260.56,82.4a.333.333,0,0,0,.649.153,4.671,4.671,0,0,0-4.542-5.744Z" transform="translate(-255.999 -76.81)"/></g></g></svg>